# xmcd
#
# Track frame offsets:
#	150
#	17475
#	39267
#	51772
#	72397
#	86575
#	105922
#	120600
#	135890
#	152035
#	167037
#	183559
#	198827
#	214157
#	229930
#	242530
#	260422
#
# Disc length: 3547 seconds
#
# Revision: 1
# Processed by: cddbd v1.4b42PL0 Copyright (c) Steve Scherf et al.
# Submitted via: audiograbber 1.80
#
DISCID=d80dd911
DTITLE=NILSON CHAVES - TUDO INDIO
DYEAR=1900
DGENRE=
TTITLE0=Tudo Índio
TTITLE1=Destino Marajoara
TTITLE2=Vê Se Não Demora
TTITLE3=Marapatá
TTITLE4=Wapixanua
TTITLE5=A Notícia
TTITLE6=Sentimentos Cintilantes
TTITLE7=O Portador
TTITLE8=Fazendinha
TTITLE9=Petisqueiro
TTITLE10=Lábios Caboclos
TTITLE11=Das Águas e das Matas
TTITLE12=Memória da Tribo
TTITLE13=A Lua de Lumiar
TTITLE14=A Sereia, a Taínha e a Tintureira
TTITLE15=Na Minha Juventude
TTITLE16=Sonha Tica
EXTD=
EXTT0=66055881\nEliakin Rufino
EXTT1=66055822\nNilson Chaves
EXTT2=66055849\nNilson Chaves - Vital Lima
EXTT3=66055903\nArmando de Paula - Anibal Beça
EXTT4=66055890\nNeuber - Zeca Preto
EXTT5=66055938\nVicente Barreto - Celso Viáfora
EXTT6=66055911\nCélio Cruz - Eliakin Rufino
EXTT7=66055830\nNilson Chaves - Jamil Damous
EXTT8=66055857\nNilson Chaves - João Gomes
EXTT9=66055946\nEudes Fraga - Renato Gusmão
EXTT10=66055865\nNilson Chaves - João Gomes
EXTT11=66055873\nTorrinho - Anibal Beça
EXTT12=66055920\nNilson Chaves - Eliakin Rufino
EXTT13=66055814\nNilson Chaves - Jamil Damous
EXTT14=66055954\nAgripino Almeida da Conceição "Mestre Agripino"
EXTT15=66055970\nRaul Torres - Júlio Fowler
EXTT16=66055962\nOrestes Mourão
PLAYORDER=
